Coordinates
version=1
nRows=14
nColumns=24
inDegrees=yes

Units are S.I. units (second, meters, Newtons, ...)
Angles are in degrees.

endheader
time	pelvis_tilt	pelvis_list	pelvis_rotation	pelvis_tx	pelvis_ty	pelvis_tz	hip_flexion_r	hip_adduction_r	hip_rotation_r	knee_angle_r	ankle_angle_r	subtalar_angle_r	mtp_angle_r	hip_flexion_l	hip_adduction_l	hip_rotation_l	knee_angle_l	ankle_angle_l	subtalar_angle_l	mtp_angle_l	lumbar_extension	lumbar_bending	lumbar_rotation
      0.45900000	     -6.80355195	      5.92047665	     -2.84520852	     -0.84254859	      1.03283444	      0.31741744	     34.45075706	     -2.62523055	      0.82872733	     -5.60175029	      6.32666313	     -0.97806844	      8.57519149	     -8.09336023	      7.71682840	      0.48382783	     -5.93902201	     19.35919503	      7.44895149	     -0.46081836	     -5.51593708	     -4.83422710	     -3.04219094
      0.46316667	     -6.75040799	      5.88908047	     -2.79710748	     -0.83633138	      1.03189095	      0.31760766	     34.46444860	     -2.56669620	      1.04911463	     -5.93897886	      6.22309225	     -1.25544539	      8.57856400	     -8.28468223	      7.66926586	      0.46950017	     -6.44782209	     19.61726366	      7.65655245	     -0.43226881	     -5.53416366	     -4.69121676	     -3.08874513
      0.46733333	     -6.73258018	      5.85059022	     -2.74752593	     -0.83005831	      1.03091387	      0.31781173	     34.51399579	     -2.49775614	      1.27243572	     -6.34754617	      6.09032809	     -1.56413573	      8.59111738	     -8.41377013	      7.60765546	      0.39735539	     -7.02375541	     19.88638682	      7.93915406	     -0.37482021	     -5.49796068	     -4.53599941	     -3.09850112
      0.47150000	     -6.70418135	      5.79091867	     -2.69386981	     -0.82372501	      1.03002082	      0.31800279	     34.54027100	     -2.41285961	      1.47734658	     -6.80734347	      5.91210641	     -1.91309209	      8.61165782	     -8.54998389	      7.52166868	      0.32173606	     -7.60778556	     20.12796237	      8.22286774	     -0.29475799	     -5.47374579	     -4.35125548	     -3.12271394
      0.47566667	     -6.66044172	      5.72259156	     -2.63576134	     -0.81738315	      1.02920907	      0.31819713	     34.54391952	     -2.32301201	      1.67305938	     -7.31547309	      5.69454772	     -2.29329878	      8.63946843	     -8.69026619	      7.42446971	      0.25168987	     -8.22252308	     20.34036852	      8.50468456	     -0.18695466	     -5.46889948	     -4.15428057	     -3.14377695
      0.47983333	     -6.63317707	      5.64214382	     -2.57605644	     -0.81096882	      1.02842587	      0.31839835	     34.55382795	     -2.22073410	      1.86033123	     -7.86178864	      5.42027979	     -2.72002947	      8.67456595	     -8.79355230	      7.31020879	      0.15933354	     -8.88069114	     20.53291524	      8.79736858	     -0.05430212	     -5.43161417	     -3.94122457	     -3.15754226
      0.48400000	     -6.60703204	      5.55061070	     -2.51387079	     -0.80452238	      1.02769898	      0.31860435	     34.55623688	     -2.10900726	      2.03380269	     -8.44194855	      5.09912462	     -3.16667658	      8.71647988	     -8.88293583	      7.18055169	      0.05479176	     -9.57298186	     20.69722091	      9.10435196	      0.10976789	     -5.39381208	     -3.71193273	     -3.17567066
      0.48816667	     -6.57518119	      5.44968340	     -2.44745411	     -0.79803718	      1.02704320	      0.31880771	     34.54465315	     -1.99191979	      2.18388856	     -9.05212682	      4.73424536	     -3.62523538	      8.76261165	     -8.96175107	      7.03732847	     -0.06649227	    -10.29186974	     20.82731463	      9.41963173	      0.30342049	     -5.35940141	     -3.47025100	     -3.19195396
      0.49233333	     -6.55644790	      5.34340930	     -2.37388154	     -0.79152618	      1.02643204	      0.31901350	     34.53831380	     -1.87267948	      2.31842589	     -9.68391314	      4.32788756	     -4.09537800	      8.81299318	     -9.00341185	      6.88312751	     -0.19538491	    -11.06307074	     20.92142629	      9.73615696	      0.53410886	     -5.30422557	     -3.22075205	     -3.21025235
      0.49650000	     -6.54025910	      5.22643502	     -2.29796358	     -0.78497228	      1.02587819	      0.31922806	     34.52590797	     -1.74512851	      2.43263571	    -10.33266036	      3.88101432	     -4.56813432	      8.86547742	     -9.02467553	      6.71327141	     -0.33121723	    -11.87836441	     20.98782423	     10.05926005	      0.80304825	     -5.24731025	     -2.95671317	     -3.22204414
      0.50066667	     -6.51459282	      5.10454674	     -2.21651840	     -0.77840902	      1.02540958	      0.31945239	     34.49765097	     -1.61765369	      2.51769013	    -10.99729808	      3.40820018	     -5.03401910	      8.91852506	     -9.02908637	      6.53148804	     -0.49103691	    -12.73869700	     21.01703462	     10.40201147	      1.12677740	     -5.19758863	     -2.68862419	     -3.24371223
      0.50483333	     -6.50098867	      4.98186536	     -2.12881258	     -0.77180455	      1.02499403	      0.31965481	     34.48424216	     -1.49862106	      2.54775622	    -11.69077183	      2.93287084	     -5.40590327	      9.45839107	     -9.00678839	      6.34640089	     -0.63932444	    -13.61746093	     20.94286946	     10.68472845	      4.36246218	     -5.13482361	     -2.42655826	     -3.23753267
      0.50900000	     -6.50684809	      4.85405418	     -2.03776533	     -0.76517911	      1.02462493	      0.31988186	     34.47967688	     -1.37214336	      2.59152574	    -12.38077915	      2.41517477	     -5.87168922	      9.44052864	     -8.93946423	      6.15267697	     -0.76843983	    -14.54730478	     20.84174783	     10.94260740	      4.43012088	     -5.03355657	     -2.14182892	     -3.26232951
      0.51316667	     -6.49468688	      4.71508802	     -1.94391088	     -0.75855163	      1.02434674	      0.32011604	     34.45099881	     -1.24127347	      2.60803859	    -13.07775134	      1.90944039	     -6.27789576	      9.41926201	     -8.85201302	      5.93504415	     -0.96753150	    -15.55441041	     20.73615196	     11.30469792	      4.56821742	     -4.96502332	     -1.85454861	     -3.27646918
